#!OML:ASF H:\GeneralSubjects\Female5\Project 1\Capture day 1\Session 1\Female5.ASF
:FULLY-SPECIFIED
:DEGREES
198
root -21.5295 16.6676 -0.428426 -118.576 -102.064 132.406
lowerback 4.70346 4.53024 8.0569
upperback -11.6924 6.89904 0.363823
thorax -14.7201 2.21505 -5.14693
lowerneck -19.3122 -0.0780515 0.82097
upperneck 25.7076 0.127805 -2.50541
head 11.6016 -0.282307 -1.06556
rclavicle -1.95306e-014 1.19271e-014
rhumerus -47.7556 15.5198 -78.4709
rradius 83.5603
rwrist -18.7248
rhand -34.1926 -9.58786
rfingers 7.12502
rthumb -7.36545 -39.4397
lclavicle -1.95306e-014 1.19271e-014
lhumerus -76.8633 -16.0887 84.8551
lradius 93.327
lwrist 7.85502
lhand -36.7882 39.6698
lfingers 7.12502
lthumb -9.87029 69.4184
rfemur 14.1725 -0.704833 42.7781
rtibia 11.5959
rfoot 10.6433 -29.8016
rtoes 8.36083
lfemur -44.55 -25.9172 -8.78755
ltibia 12.5108
lfoot -31.4866 -0.716335
ltoes -47.5215
199
root -22.3687 16.6371 -0.44399 -114.676 -102.726 128.091
lowerback 4.44086 4.58247 8.79034
upperback -11.6629 7.02594 0.420804
thorax -14.4365 2.21368 -5.46812
lowerneck -19.6268 -0.274195 0.783774
upperneck 26.836 -0.537671 -1.24848
head 12.0927 -0.43142 -0.711307
rclavicle 1.70955e-014 8.34896e-015
rhumerus -49.5355 15.9442 -80.2856
rradius 81.208
rwrist -19.1283
rhand -33.2492 -13.5611
rfingers 7.12502
rthumb -6.45475 -43.4427
lclavicle 1.70955e-014 8.34896e-015
lhumerus -75.4435 -17.0813 84.7177
lradius 92.9129
lwrist 8.81299
lhand -37.1743 43.672
lfingers 7.12502
lthumb -10.2428 73.4026
rfemur 12.4925 -3.28215 42.3944
rtibia 18.416
rfoot 12.0696 -28.9113
rtoes 7.17543
lfemur -43.1402 -25.4389 -8.65261
ltibia 14.1775
lfoot -30.6791 -2.90485
ltoes -49.5635
200
root -23.2016 16.5213 -0.458705 -111.053 -103.081 123.757
lowerback 4.53425 4.61125 9.29219
upperback -11.5256 7.1332 0.452265
thorax -14.2688 2.22678 -5.72117
lowerneck -19.8817 -0.443695 0.753413
upperneck 27.5855 -1.2665 0.242584
head 12.4466 -0.563786 -0.268738
rclavicle -8.05078e-015 -7.95139e-015
rhumerus -51.4435 16.661 -82.4923
rradius 77.9651
rwrist -19.5062
rhand -32.3881 -12.6759
rfingers 7.12502
rthumb -5.62344 -42.5813
lclavicle -8.05078e-015 -7.95139e-015
lhumerus -73.7657 -18.0984 84.5257
lradius 92.141
lwrist 8.49766
lhand -36.3655 40.473
lfingers 7.12502
lthumb -9.46244 70.2405
rfemur 10.706 -5.67439 41.6638
rtibia 26.1511
rfoot 11.1995 -26.9004
rtoes 2.07311
lfemur -40.0364 -24.5594 -9.28857
ltibia 13.9267
lfoot -22.348 -11.3724
ltoes -31.6936
201
root -24.033 16.3401 -0.47215 -108.309 -102.866 119.866
lowerback 5.1321 4.58806 9.26338
upperback -11.2738 7.16345 0.366751
thorax -14.3269 2.24648 -5.85647
lowerneck -19.9766 -0.503532 1.18959
upperneck 28.2104 -1.8513 1.18459
head 12.7275 -0.652387 -0.0846102
rclavicle 2.99171e-014 1.51076e-014
rhumerus -53.2942 16.887 -84.5244
rradius 74.9685
rwrist -20.0011
rhand -30.9595 -13.6784
rfingers 7.12502
rthumb -4.24399 -43.6159
lclavicle 2.99171e-014 1.51076e-014
lhumerus -72.1755 -19.3039 85.0339
lradius 91.9702
lwrist 8.38608
lhand -37.4327 43.4518
lfingers 7.12502
lthumb -10.4921 73.1699
rfemur 9.44722 -8.09713 40.0408
rtibia 33.5229
rfoot 5.99827 -27.316
rtoes 7.01015
lfemur -35.7824 -22.584 -11.6339
ltibia 15.5767
lfoot -15.6105 -14.8293
ltoes -20.1015
202
root -24.8303 16.1038 -0.485021 -106.797 -101.946 117.157
lowerback 6.24291 4.37356 8.32623
upperback -11.032 6.87523 0.247635
thorax -14.8582 2.182 -5.5471
lowerneck -19.3424 -0.401623 1.50269
upperneck 28.0317 -2.1939 2.36695
head 12.5451 -0.624468 0.258906
rclavicle 3.37934e-015 -3.18055e-015
rhumerus -54.7904 16.8181 -86.4173
rradius 71.3584
rwrist -19.3554
rhand -30.278 -13.2419
rfingers 7.12502
rthumb -3.58596 -43.1915
lclavicle 3.37934e-015 -3.18055e-015
lhumerus -70.2306 -19.7431 85.3697
lradius 91.4887
lwrist 7.25277
lhand -37.1866 43.3398
lfingers 7.12502
lthumb -10.2546 73.0698
rfemur 8.17773 -9.80418 37.8528
rtibia 40.0261
rfoot -0.854351 -28.411
rtoes 6.8787
lfemur -31.8349 -19.7636 -15.098
ltibia 16.1369
lfoot -17.9753 1.02725
ltoes -19.9943
203
root -25.5886 15.8558 -0.492164 -108.406 -100.36 117.041
lowerback 8.37036 3.88279 6.62892
upperback -10.5637 6.1622 0.0658915
thorax -15.8882 1.98376 -4.89468
lowerneck -18.7324 -0.162763 2.52648
upperneck 28.064 -2.16515 2.24578
head 12.4251 -0.533637 0.0429144
rclavicle 2.05742e-014 7.15625e-015
rhumerus -55.4653 16.1993 -87.5836
rradius 66.8324
rwrist -15.8158
rhand -28.739 -13.9658
rfingers 7.12502
rthumb -2.09961 -43.9353
lclavicle 2.05742e-014 7.15625e-015
lhumerus -67.5975 -19.2142 85.3842
lradius 90.462
lwrist 5.18433
lhand -35.3685 40.861
lfingers 7.12502
lthumb -8.50042 70.67
rfemur 7.24388 -11.4435 34.7513
rtibia 45.6426
rfoot -5.74481 -27.4888
rtoes 7.17607
lfemur -29.3834 -18.1945 -19.2062
ltibia 21.3009
lfoot -13.4497 4.28565
ltoes -34.4981
204
root -26.3359 15.6251 -0.496758 -114.581 -98.6461 121.426
lowerback 10.3618 2.99235 3.67377
upperback -9.8732 4.66014 0.576535
thorax -16.7734 1.65988 -2.50624
lowerneck -18.5292 0.317038 1.44235
upperneck 28.5026 -1.67841 3.85538
head 12.5886 -0.228276 0.920202
rclavicle 3.37934e-015 -2.54444e-014
rhumerus -56.1101 17.2268 -88.0778
rradius 62.4417
rwrist -12.8489
rhand -27.5777 -15.4681
rfingers 7.12502
rthumb -0.978047 -45.4456
lclavicle 3.37934e-015 -2.54444e-014
lhumerus -64.6535 -16.8355 85.9506
lradius 88.812
lwrist 2.97215
lhand -33.4796 41.341
lfingers 7.12502
lthumb -6.67717 71.2158
rfemur 5.16469 -12.5129 31.6623
rtibia 50.955
rfoot -8.3502 -26.4548
rtoes -0.629197
lfemur -27.0563 -18.7169 -23.2554
ltibia 27.3
lfoot -16.8649 0.801261
ltoes -37.8439
